<?xml version="1.0" encoding="UTF-8"?>
<!DOCTYPE svg PUBLIC "-//W3C//DTD SVG 1.1//EN" "http://www.w3.org/Graphics/SVG/1.1/DTD/svg11.dtd">
<!-- Creator: CorelDRAW 2018 (64 Bit Versão de avaliação) -->
<svg xmlns="http://www.w3.org/2000/svg" xml:space="preserve" width="3.2689mm" height="3.6306mm" version="1.1" shape-rendering="geometricPrecision" text-rendering="geometricPrecision" image-rendering="optimizeQuality" fill-rule="evenodd" clip-rule="evenodd"
viewBox="0 0 22.21 24.67"
 xmlns:xlink="http://www.w3.org/1999/xlink">
 <g id="Camada_x0020_1">
  <metadata id="CorelCorpID_0Corel-Layer"/>
  <g id="_2615171933024">
   <g>
    <path fill="#AD4BFF" d="M3.81 7.42l14.6 -0c-0.05,0.6 -1.08,13.6 -1.18,13.95 -0.16,0.53 -0.64,0.87 -1.29,0.87l-9.66 0c-1.6,0 -1.37,-1.61 -1.48,-2.82 -0.11,-1.33 -0.22,-2.67 -0.33,-4.01 -0.23,-2.66 -0.46,-5.33 -0.66,-7.99zm4.79 -4.95l4.98 0 0.04 2.47 -4.99 0 -0.04 -2.47zm-3.1 22.19l11.22 0c0.56,-0.29 0.73,-0.06 1.77,-0.88 1.24,-0.98 1.24,-2.44 1.37,-3.95l0.62 -7.44c0.13,-1.63 0.33,-3.32 0.41,-4.95 0.41,-0.14 0.47,-0.03 0.86,-0.3 0.33,-0.23 0.27,-0.37 0.47,-0.69l0 -0.57c-0.15,-0.23 -0.14,-0.37 -0.35,-0.58 -0.49,-0.51 -1.45,-0.4 -2.31,-0.37 -1.07,0.03 -2.44,0.06 -3.49,-0 -0.17,-0.99 0.2,-2.45 -0.19,-3.38 -0.57,-1.36 -1.58,-1.37 -1.98,-1.56l-5.58 0c-0.4,0.19 -1.41,0.2 -1.98,1.56 -0.39,0.93 -0.02,2.39 -0.19,3.38 -1.61,0.09 -3.34,-0.08 -4.95,0.01 -1.31,0.07 -1.53,1.58 -0.79,2.17 0.37,0.29 0.48,0.19 0.91,0.34 0.08,1.62 0.27,3.29 0.41,4.9 0.14,1.66 0.27,3.3 0.41,4.96 0.08,0.98 0.27,4.12 0.5,4.85 0.21,0.64 0.68,1.31 1.05,1.6 1.02,0.82 1.24,0.61 1.8,0.9z"/>
    <path fill="#AD4BFF" d="M13.32 9.92c-1.12,0.26 -0.98,1.32 -0.98,2.1l-0 6.18c-0,0.53 0.08,0.93 0.36,1.21 0.23,0.23 0.71,0.44 1.19,0.32 1.1,-0.28 0.92,-1.43 0.92,-2.1l0 -6.18c0,-0.53 -0.08,-0.9 -0.35,-1.18 -0.22,-0.23 -0.69,-0.44 -1.14,-0.33z"/>
    <path fill="#AD4BFF" d="M8.39 9.92c-0.45,0.1 -0.69,0.34 -0.85,0.66 -0.2,0.38 -0.14,0.93 -0.14,1.4l0 6.18c-0,0.56 -0.01,0.84 0.33,1.2 0.63,0.67 1.64,0.47 2,-0.26 0.2,-0.41 0.15,-0.93 0.15,-1.42l0 -6.18c0,-0.54 -0.06,-0.91 -0.35,-1.22 -0.22,-0.23 -0.66,-0.46 -1.13,-0.36z"/>
   </g>
  </g>
 </g>
</svg>
