<?xml version="1.0" encoding="UTF-8"?>
<!DOCTYPE svg PUBLIC "-//W3C//DTD SVG 1.1//EN" "http://www.w3.org/Graphics/SVG/1.1/DTD/svg11.dtd">
<!-- Creator: CorelDRAW 2018 (64 Bit Versão de avaliação) -->
<svg xmlns="http://www.w3.org/2000/svg" xml:space="preserve" width="28.5105mm" height="28.5105mm" version="1.1" shape-rendering="geometricPrecision" text-rendering="geometricPrecision" image-rendering="optimizeQuality" fill-rule="evenodd" clip-rule="evenodd"
viewBox="0 0 2851.04 2851.04"
 xmlns:xlink="http://www.w3.org/1999/xlink">
 <g id="Camada_x0020_1">
  <metadata id="CorelCorpID_0Corel-Layer"/>
  <rect fill="none" x="0.01" width="2851.03" height="2851.03"/>
  <rect fill="none" x="-0" y="-0" width="2851.04" height="2851.04"/>
  <g id="_2733091958576">
   <g>
    <path fill="#4BFFAD" d="M16.57 676.61l0 1776.85c0,207.35 174.63,381.61 381.61,381.61l1776.85 0c101.34,0 202.14,-37.98 269.91,-105.74 55.88,-55.88 117.67,-149.53 117.67,-257.98l0 -918.24c0,-123.99 -183.77,-168.7 -241.69,-50.89 -21.29,43.3 -14.71,97.58 -14.71,158.21l0 703.59c0,62.53 6.92,114.45 -18.69,154.23 -22.58,35.07 -62.18,60.43 -118.45,60.43l-1747.04 0c-97.91,0 -149.07,-51.16 -149.07,-149.07l0 -1747.04c0,-53.9 23.04,-92.93 56.88,-116.04 41.42,-28.28 87.04,-21.1 151.82,-21.1l703.59 0c59.17,0 117.77,6.2 160.1,-12.81 122.13,-54.84 79.32,-243.58 -46.81,-243.58l-912.29 0c-199.37,0 -369.68,173.31 -369.68,387.57z"/>
    <path fill="#4BFFAD" d="M1089.85 1761.8c0.67,-30.35 38.43,-164.87 50.08,-212.27 8.08,-32.91 5.18,-42.92 25.59,-63.85 59.16,-60.66 116.37,-115.68 176.25,-175.55l968.92 -968.93c50.97,-51.05 63.01,-64.1 138.64,-64.1 70.1,0 125.21,60.29 125.21,149.07 0,54.35 -32.91,83.69 -61.11,111.8l-1144.57 1145.09c-23.23,23.62 -24.45,18.38 -61.95,27.48 -49.02,11.9 -185.68,50.56 -217.06,51.26zm-310.06 184.84c0,64.88 60.33,125.21 125.21,125.21 33.53,0 158.23,-35.08 199.16,-45.31 68,-16.99 354.88,-80.46 392.21,-108.64l1246.13 -1246.26c83.41,-105.04 117.86,-256.13 70.66,-382.72 -71.87,-192.75 -267.86,-309.8 -459.46,-262.47 -152.72,37.72 -201.43,109.45 -296.42,204.44l-995.76 995.76c-158.96,158.96 -129.76,94.27 -185.13,315.73 -11.21,44.83 -96.6,365.05 -96.6,404.26z"/>
   </g>
  </g>
 </g>
</svg>
